<svg xmlns="http://www.w3.org/2000/svg" viewBox="0 0 153 26">
  <g fill="none" fill-rule="evenodd">
    <path fill="#FFF" fill-rule="nonzero" d="M44.6 25v-5.3l1.9-2.2 4.4 7.5h5.5L50 14.6l6.3-7h-6l-5.8 6.2V.8h-4.8V25h4.8Zm19.3.4a7 7 0 0 0 5.3-2V25h4.4V13.5a5.9 5.9 0 0 0-3.5-5.6 9 9 0 0 0-4-.8c-1.8 0-3.4.5-4.8 1.3-1.4.9-2.4 2-2.9 3.5l3.9 1.8a4 4 0 0 1 1.4-1.9c.6-.4 1.4-.7 2.2-.7 1 0 1.6.3 2.2.7.5.5.7 1 .7 1.7v.5l-4.8.7c-2 .4-3.6 1-4.7 2a5 5 0 0 0-1.5 3.6c0 1.6.6 2.8 1.7 3.7 1 1 2.5 1.4 4.4 1.4Zm1-3.5c-.6 0-1.1-.2-1.5-.5-.4-.3-.6-.7-.6-1.2 0-.6.1-1 .5-1.4.4-.3.9-.5 1.6-.6l4-.7v.5a3.8 3.8 0 0 1-4 3.9Zm17 3.1V14.8c0-1 .4-1.8 1-2.4a3 3 0 0 1 2.3-1 3.2 3.2 0 0 1 3.2 3.4V25h4.8V13.8a7 7 0 0 0-.9-3.5A6 6 0 0 0 90 8a7 7 0 0 0-3.5-.9c-1 0-2 .3-2.9.7a4.3 4.3 0 0 0-2 1.9V7.5h-4.4V25H82Zm24.2.4c1.7 0 3.3-.4 4.6-1.2a8.8 8.8 0 0 0 3.2-3.3c.8-1.4 1.2-3 1.2-4.6 0-1.7-.4-3.3-1.2-4.7a9 9 0 0 0-3.2-3.2 8.6 8.6 0 0 0-4.5-1.3c-2.2 0-3.8.7-5 1.9V.8h-4.9V25h4.5v-1.7a6 6 0 0 0 2.3 1.6 8.4 8.4 0 0 0 3 .5Zm-.5-4.3c-1.3 0-2.4-.5-3.2-1.4-.9-.8-1.3-2-1.3-3.4a5 5 0 0 1 1.3-3.5 4 4 0 0 1 3.2-1.3 4 4 0 0 1 3.2 1.3c.9 1 1.3 2 1.3 3.5 0 1.4-.4 2.5-1.3 3.4a4 4 0 0 1-3.2 1.4Zm17.7 4.3a7 7 0 0 0 5.2-2V25h4.5V13.5a5.9 5.9 0 0 0-3.6-5.6 9 9 0 0 0-3.9-.8 10 10 0 0 0-4.9 1.3c-1.4.9-2.3 2-2.8 3.5l3.8 1.8a4 4 0 0 1 1.4-1.9c.7-.4 1.4-.7 2.3-.7.9 0 1.6.3 2.1.7.5.5.8 1 .8 1.7v.5l-4.8.7c-2.1.4-3.7 1-4.7 2s-1.5 2.2-1.5 3.6c0 1.6.5 2.8 1.6 3.7 1.1 1 2.6 1.4 4.5 1.4Zm1-3.5c-.7 0-1.2-.2-1.6-.5-.4-.3-.6-.7-.6-1.2 0-.6.2-1 .6-1.4a3 3 0 0 1 1.5-.6l4-.7v.5a3.8 3.8 0 0 1-4 3.9Zm17 3.1V14.8a3 3 0 0 1 1-2.4 3 3 0 0 1 2.2-1c1 0 1.7.4 2.3 1 .6.6 1 1.4 1 2.4V25h4.7V13.8a7 7 0 0 0-.8-3.5 6 6 0 0 0-2.3-2.3 7 7 0 0 0-3.5-.9c-1.1 0-2 .3-3 .7a4.3 4.3 0 0 0-1.9 1.9V7.5h-4.5V25h4.8Z"/>
    <g fill="#635FC7" transform="translate(0 1)">
      <rect width="6" height="25" rx="2"/>
      <rect width="6" height="25" x="9" opacity=".8" rx="2"/>
      <rect width="6" height="25" x="18" opacity=".5" rx="2"/>
    </g>
  </g>
</svg>